<svg viewBox="0 0 512 512" xmlns="http://www.w3.org/2000/svg" style="fill: rgba(245,245,245);"><path d="m257 161c-52.382812 0-95 42.617188-95 95s42.617188 95 95 95 95-42.617188 95-95-42.617188-95-95-95zm0 150c-30.328125 0-55-24.671875-55-55s24.671875-55 55-55 55 24.671875 55 55-24.671875 55-55 55zm189-35h-43c-11.046875 0-20-8.953125-20-20s8.953125-20 20-20h43c11.046875 0 20 8.953125 20 20s-8.953125 20-20 20zm-209-164v-25c0-11.046875 8.953125-20 20-20s20 8.953125 20 20v25c0 11.046875-8.953125 20-20 20s-20-8.953125-20-20zm-124 164h-44c-11.046875 0-20-8.953125-20-20s8.953125-20 20-20h44c11.046875 0 20 8.953125 20 20s-8.953125 20-20 20zm164 124v25c0 11.046875-8.953125 20-20 20s-20-8.953125-20-20v-25c0-11.046875 8.953125-20 20-20s20 8.953125 20 20zm-184.683594-50.65625c-5.160156-9.769531-1.425781-21.867188 8.339844-27.027344l20.625-10.894531c9.765625-5.160156 21.867188-1.421875 27.023438 8.34375 5.160156 9.765625 1.425781 21.867187-8.339844 27.023437l-20.625 10.894532c-2.976563 1.574218-6.175782 2.320312-9.324219 2.320312-7.175781 0-14.113281-3.875-17.699219-10.660156zm53.316406-246.429688c-5.476562-9.59375-2.140624-21.808593 7.453126-27.28125 9.589843-5.476562 21.808593-2.140624 27.28125 7.453126l21.898437 38.351562c5.472656 9.59375 2.136719 21.808594-7.457031 27.285156-3.125 1.785156-6.535156 2.636719-9.894532 2.636719-6.945312 0-13.695312-3.625-17.386718-10.089844zm274.839844 59.355469c5.375 9.648438 1.910156 21.828125-7.738281 27.203125l-21.355469 11.894532c-3.082031 1.71875-6.421875 2.53125-9.714844 2.53125-7.019531 0-13.832031-3.703126-17.488281-10.269532-5.375-9.648437-1.910156-21.828125 7.738281-27.207031l21.355469-11.894531c9.648438-5.375 21.828125-1.910156 27.203125 7.742187zm-59.75 275.207031c-3.078125 1.714844-6.414062 2.527344-9.703125 2.527344-7.023437 0-13.839843-3.707031-17.496093-10.28125l-21.894532-39.351562c-5.371094-9.652344-1.898437-21.832032 7.753906-27.203125 9.652344-5.371094 21.832032-1.894531 27.199219 7.753906l21.894531 39.355469c5.371094 9.652344 1.898438 21.828125-7.753906 27.199218zm52.644532-113.582031c9.445312 5.726563 12.460937 18.027344 6.734374 27.472657-3.761718 6.203124-10.359374 9.636718-17.121093 9.636718-3.53125 0-7.105469-.9375-10.347657-2.898437l-19.621093-11.894531c-9.445313-5.726563-12.464844-18.023438-6.738281-27.472657 5.726562-9.445312 18.027343-12.460937 27.472656-6.734375zm-101.632813-202.457031 21.898437-38.351562c5.472657-9.59375 17.6875-12.933594 27.28125-7.457032 9.59375 5.476563 12.929688 17.691406 7.453126 27.285156l-21.894532 38.355469c-3.6875 6.464844-10.441406 10.085938-17.386718 10.085938-3.359376 0-6.769532-.847657-9.894532-2.632813-9.59375-5.476562-12.929687-17.691406-7.457031-27.285156zm-191.742187 32.238281 22.355468 12.894531c9.566406 5.519532 12.851563 17.75 7.332032 27.316407-3.703126 6.421875-10.429688 10.011719-17.34375 10.011719-3.390626 0-6.828126-.863282-9.976563-2.679688l-22.351563-12.894531c-9.570312-5.519531-12.851562-17.75-7.332031-27.316407 5.519531-9.570312 17.75-12.855468 27.316407-7.332031zm82.191406 237.027344-22.898438 39.355469c-3.710937 6.382812-10.414062 9.945312-17.304687 9.945312-3.414063 0-6.875-.875-10.039063-2.71875-9.546875-5.554687-12.785156-17.796875-7.226562-27.34375l22.894531-39.351562c5.550781-9.550782 17.792969-12.785156 27.34375-7.230469 9.546875 5.554687 12.78125 17.796875 7.230469 27.34375zm-202.183594-271.703125v-59c0-33.085938 26.914062-60 60-60h61c11.046875 0 20 8.953125 20 20s-8.953125 20-20 20h-61c-11.027344 0-20 8.972656-20 20v59c0 11.046875-8.953125 20-20 20s-20-8.953125-20-20zm512-59v59c0 11.046875-8.953125 20-20 20s-20-8.953125-20-20v-59c0-11.027344-8.972656-20-20-20h-61c-11.046875 0-20-8.953125-20-20s8.953125-20 20-20h61c33.085938 0 60 26.914062 60 60zm-371 432c0 11.046875-8.953125 20-20 20h-61c-33.085938 0-60-26.914062-60-60v-59c0-11.046875 8.953125-20 20-20s20 8.953125 20 20v59c0 11.027344 8.972656 20 20 20h61c11.046875 0 20 8.953125 20 20zm371-99v59c0 33.085938-26.914062 60-60 60h-61c-11.046875 0-20-8.953125-20-20s8.953125-20 20-20h61c11.027344 0 20-8.972656 20-20v-59c0-11.046875 8.953125-20 20-20s20 8.953125 20 20zm0 0"/></svg>