<svg class="fill-current" enable-background="new 0 0 512 512" viewBox="0 0 512 512" xmlns="http://www.w3.org/2000/svg"><g><path d="m452 116h-20v40h20c11.028 0 20 8.972 20 20v60 156h-136c-22.494 0-43.275 7.467-60 20.051v-133.486c67.755-9.735 120-68.159 120-138.565 0-77.196-62.804-140-140-140s-140 62.804-140 140c0 70.406 52.245 128.831 120 138.565v133.485c-16.725-12.582-37.506-20.05-60-20.05h-136c0-22.578 0-192.588 0-216 0-11.028 8.972-20 20-20h20v-40h-20c-33.084 0-60 26.916-60 60v276c0 33.084 26.916 60 60 60h216 176c33.084 0 60-26.916 60-60 0-33.646 0-241.406 0-276 0-33.084-26.916-60-60-60zm-392 356c-11.028 0-20-8.972-20-20v-20h136c26.075 0 48.318 16.719 56.573 40zm96-332c0-55.14 44.86-100 100-100 55.141 0 100 44.86 100 100s-44.859 100-100 100c-55.14 0-100-44.86-100-100zm316 312c0 11.028-8.972 20-20 20h-172.573c8.255-23.281 30.498-40 56.573-40h136z"/><path d="m76 236h40v40h-40z"/><path d="m76 316h120v40h-120z"/><path d="m396 236h40v40h-40z"/><path d="m316 316h120v40h-120z"/><path d="m316 120h-40v-40h-40v80h80z"/></g></svg>